Duel.1971.XviD-NvadR 
http://www.imdb.com/title/tt0067023/

David Mann (Dennis Weaver), on his way to a business appointment, 
pulls out of his garage, leaves his city and heads out onto the 
unfamiliar desert highways. As he slowly moves away from civilization, 
David Mann passes a slow moving oil tanker truck and thus becomes its 
unwilling prey. The truck is relentless in its pursuit and David must 
summon the courage and strength to escape alive while struggling to 
maintain a firm grasp on his psyche.

------------------- SCREENSHOTS ----------------------- 
http://s15.postimage.org/rumsfidkp/01ajifo4u0quf8u8f.jpg
 
http://s13.postimage.org/qc8t37q5h/02ew445iosjfo4j.jpg
 
http://s13.postimage.org/c9mvo8krp/03egj45lk4j687tryek.jpg
 
http://s12.postimage.org/dlw62m7hn/04re36585lk45jl45.jpg
 
http://s13.postimage.org/xr2q9c1et/05wriwe43545954569.jpg
 
http://s11.postimage.org/xo1pr0ue9/06vmxrt950583.jpg
---------------------------------------------------------

General

Complete name                    : Duel.1971.XviD-NvadR
Format                           : AVI
Format/Info                      : Audio Video Interleave
File size                        : 700 MiB
Duration                         : 1h 25mn
Overall bit rate                 : 1 144 Kbps
Writing application              : VirtualDubMod 1.5.10.2 (build 2542/release)
Writing library                  : VirtualDubMod build 2542/release

Video

Format                           : MPEG-4 Visual
Format profile                   : Advanced Simple@L5
Format settings, BVOP            : 2
Format settings, QPel            : No
Format settings, GMC             : No warppoints
Format settings, Matrix          : Default (H.263)
Muxing mode                      : Packed bitstream
Codec ID                         : XVID
Codec ID/Hint                    : XviD
Duration                         : 1h 25mn
Bit rate                         : 1 022 Kbps
Width                            : 500 pixels
Height                           : 376 pixels
Display aspect ratio             : 4:3
Frame rate                       : 25.000 fps
Color space                      : YUV
Chroma subsampling               : 4:2:0
Bit depth                        : 8 bits
Scan type                        : Progressive
Compression mode                 : Lossy
Bits/(Pixel*Frame)               : 0.217
Stream size                      : 626 MiB (89%)
Writing library                  : XviD 64

Audio

Audio Language                   : English
Format                           : AC-3
Format/Info                      : Audio Coding 3
Mode extension                   : CM (complete main)
Codec ID                         : 2000
Duration                         : 1h 25mn
Bit rate mode                    : Constant
Bit rate                         : 112 Kbps
Channel(s)                       : 2 channels
Channel positions                : Front: L R
Sampling rate                    : 48.0 KHz
Bit depth                        : 16 bits
Compression mode                 : Lossy
Stream size                      : 68.6 MiB (10%)
Alignment                        : Aligned on interleaves
Interleave, duration             : 40 ms (1.00 video frame)
Interleave, preload duration     : 512 ms

SOURCE
 
(DVD9)          Region 2 720 x 576 (PAL) 1.33:1 25.00fps 
                5.1 DD@384bps 48.0 KHz Stereo

NO SUBTITLES

-------------- TORRENT STATS -------------- 
http://torrent-stats.info/8541/e85616da.png